<svg xmlns="http://www.w3.org/2000/svg" width="220" height="140" viewBox="0 0 220 140">
  <defs>
    <linearGradient id="outer" x1="0" y1="0" x2="1" y2="1">
      <stop offset="0%" stop-color="#38bdf8"/>
      <stop offset="100%" stop-color="#a855f7"/>
    </linearGradient>
    <linearGradient id="inner" x1="0" y1="0" x2="1" y2="1">
      <stop offset="0%" stop-color="rgba(255,255,255,0.2)"/>
      <stop offset="100%" stop-color="rgba(255,255,255,0.05)"/>
    </linearGradient>
  </defs>
  <rect x="6" y="6" width="208" height="128" rx="20" fill="none" stroke="url(#outer)" stroke-width="6" />
  <rect x="16" y="16" width="188" height="108" rx="14" fill="url(#inner)" stroke="rgba(255,255,255,0.15)" stroke-width="2" />
  <path d="M20 24 L36 20 L44 30 L60 22 L72 30 L88 20 L96 30 L112 22 L124 30 L140 20 L152 30 L168 22 L180 30 L200 22" stroke="rgba(255,255,255,0.35)" stroke-width="2" fill="none"/>
  <circle cx="32" cy="32" r="5" fill="#fbbf24"/>
  <circle cx="188" cy="32" r="5" fill="#fbbf24"/>
  <path d="M60 110 C70 104 90 100 110 100 C130 100 150 104 160 110" stroke="rgba(56,189,248,0.8)" stroke-width="3" fill="none" />
</svg>
