<svg xmlns="http://www.w3.org/2000/svg" width="200" height="100" viewBox="0 0 200 100">
  <defs>
    <linearGradient id="hull" x1="0" x2="0" y1="0" y2="1">
      <stop offset="0%" stop-color="#8be9fd"/>
      <stop offset="100%" stop-color="#2563eb"/>
    </linearGradient>
    <linearGradient id="glow" x1="0" x2="1" y1="0" y2="1">
      <stop offset="0%" stop-color="rgba(94,234,212,0.8)"/>
      <stop offset="100%" stop-color="rgba(99,102,241,0.8)"/>
    </linearGradient>
  </defs>
  <path d="M100 6 L140 26 Q160 36 168 50 Q160 64 140 74 L100 94 L60 74 Q40 64 32 50 Q40 36 60 26 Z"
        fill="url(#hull)" stroke="rgba(15,23,42,0.6)" stroke-width="3" />
  <path d="M92 24 Q100 18 108 24 L126 44 Q130 50 126 56 L108 68 Q100 74 92 68 L74 56 Q70 50 74 44 Z"
        fill="rgba(255,255,255,0.15)" stroke="rgba(255,255,255,0.3)" stroke-width="2"/>
  <path d="M100 12 L136 30 Q154 38 160 50 Q154 62 136 70 L100 88 L64 70 Q46 62 40 50 Q46 38 64 30 Z"
        fill="none" stroke="url(#glow)" stroke-width="4" opacity="0.9"/>
  <rect x="54" y="72" width="12" height="18" rx="4" fill="rgba(59,130,246,0.5)"/>
  <rect x="134" y="72" width="12" height="18" rx="4" fill="rgba(59,130,246,0.5)"/>
</svg>
